<?xml version="1.0" encoding="utf-8"?>
<!-- Generator: Adobe Illustrator 15.1.0, SVG Export Plug-In . SVG Version: 6.00 Build 0)  -->
<!DOCTYPE svg PUBLIC "-//W3C//DTD SVG 1.1//EN" "http://www.w3.org/Graphics/SVG/1.1/DTD/svg11.dtd">
<svg version="1.1" id="Layer_1" xmlns="http://www.w3.org/2000/svg" xmlns:xlink="http://www.w3.org/1999/xlink" x="0px" y="0px"
	 width="36.336px" height="36.167px" viewBox="-0.502 -0.667 36.336 36.167" enable-background="new -0.502 -0.667 36.336 36.167"
	 xml:space="preserve">
<g>
	<path d="M17.534,0.096c-9.583,0-17.351,7.769-17.351,17.352c0,9.582,7.768,17.351,17.351,17.351s17.351-7.77,17.351-17.351
		C34.885,7.864,27.117,0.096,17.534,0.096z M28.076,21.471c-0.016,0.041-0.03,0.084-0.042,0.129c0,0.004-0.001,0.006-0.002,0.01
		c-0.009,0-0.016,0-0.023,0c-0.068,0.226-0.144,0.445-0.229,0.654c0.007,0,0.014,0,0.02,0.002c-0.018,0.045-0.032,0.09-0.043,0.135
		c-0.013,0-0.023,0-0.035,0c-0.917,2.08-2.905,3.418-7.045,3.83c-0.017,0-0.032-0.002-0.05-0.002c-0.125,0-0.237,0.021-0.338,0.056
		c-0.023-0.003-0.047-0.005-0.071-0.005c-0.141,0-0.266,0.025-0.377,0.068c-0.059-0.011-0.119-0.018-0.185-0.018
		c-0.143,0-0.27,0.025-0.381,0.068c-1.447,0.019-2.858-0.152-4.315-0.166c-0.08-0.02-0.165-0.029-0.257-0.029
		c-0.026,0-0.051,0.002-0.075,0.003c-3.795-0.438-5.941-1.763-7.036-3.804c-0.013,0-0.025,0-0.038,0.002
		c-0.018-0.047-0.04-0.092-0.063-0.135c0.01,0,0.02-0.002,0.031-0.002c-0.108-0.215-0.206-0.438-0.292-0.666
		c-0.004,0-0.007,0-0.011,0c-0.009-0.049-0.021-0.097-0.041-0.142c-0.395-1.106-0.556-2.378-0.556-3.796
		c0-1.88,1.088-3.209,2.201-4.41c-0.178-0.435-1.172-2.393-0.225-4.76c0,0,1.451-0.051,4.737,2.191
		c1.378-0.378,2.856-0.564,4.319-0.564c1.33,0,2.657,0.153,3.905,0.466c3.184-2.131,4.592-2.093,4.592-2.093
		c0.798,1.995,0.099,3.758-0.119,4.46c1.245,1.242,2.42,2.67,2.42,4.71c0,1.422-0.093,2.697-0.4,3.807
		C28.06,21.471,28.067,21.471,28.076,21.471z"/>
	<path d="M23.864,17.276c-1.377-1.246-3.694-0.575-6.322-0.575c-2.638,0-4.965-0.664-6.339,0.59
		c-0.824,0.752-1.305,1.66-1.305,2.637c0,4.078,3.422,4.715,7.645,4.715c4.222,0,7.645-0.123,7.645-4.715
		C25.187,18.943,24.698,18.031,23.864,17.276z M13.212,22.325c-0.628,0-1.136-0.731-1.136-1.636c0-0.903,0.508-1.635,1.136-1.635
		c0.626,0,1.136,0.73,1.136,1.635S13.839,22.325,13.212,22.325z M21.944,22.325c-0.627,0-1.136-0.731-1.136-1.636
		c0-0.903,0.509-1.635,1.136-1.635c0.628,0,1.137,0.73,1.137,1.635S22.572,22.325,21.944,22.325z"/>
</g>
</svg>
