<?xml version="1.0" encoding="utf-8"?>
<!-- Generator: Adobe Illustrator 15.1.0, SVG Export Plug-In . SVG Version: 6.00 Build 0)  -->
<!DOCTYPE svg PUBLIC "-//W3C//DTD SVG 1.1//EN" "http://www.w3.org/Graphics/SVG/1.1/DTD/svg11.dtd">
<svg version="1.1" id="Layer_1" xmlns="http://www.w3.org/2000/svg" xmlns:xlink="http://www.w3.org/1999/xlink" x="0px" y="0px"
	 width="104.75px" height="35px" viewBox="0 0 104.75 35" enable-background="new 0 0 104.75 35" xml:space="preserve">
<path fill="#010101" d="M73.059,20.794"/>
<g>
	<path d="M17.534,0.096c-9.583,0-17.351,7.769-17.351,17.352c0,9.582,7.768,17.351,17.351,17.351
		c9.583,0,17.351-7.769,17.351-17.351C34.885,7.864,27.117,0.096,17.534,0.096z M28.076,21.471c-0.016,0.041-0.03,0.083-0.042,0.128
		c0,0.004-0.001,0.007-0.002,0.01c-0.009,0.001-0.016,0.001-0.023,0.001c-0.068,0.225-0.144,0.444-0.229,0.654
		c0.007,0,0.014,0,0.02,0.001c-0.018,0.045-0.032,0.091-0.043,0.136c-0.013,0-0.023,0-0.035-0.001
		c-0.917,2.08-2.905,3.418-7.045,3.831c-0.017,0-0.032-0.002-0.05-0.002c-0.125,0-0.237,0.021-0.338,0.055
		c-0.023-0.002-0.047-0.004-0.071-0.004c-0.141,0-0.266,0.025-0.377,0.067c-0.059-0.01-0.119-0.017-0.185-0.017
		c-0.143,0-0.27,0.025-0.381,0.068c-1.447,0.019-2.858-0.152-4.315-0.166c-0.08-0.019-0.165-0.029-0.257-0.029
		c-0.026,0-0.051,0.002-0.075,0.003c-3.795-0.438-5.941-1.763-7.036-3.803c-0.013,0-0.025,0-0.038,0.001
		c-0.018-0.046-0.04-0.091-0.063-0.135c0.01,0,0.02-0.001,0.031-0.002c-0.108-0.214-0.206-0.437-0.292-0.665
		c-0.004,0-0.007,0-0.011,0c-0.009-0.05-0.021-0.097-0.041-0.142c-0.395-1.106-0.556-2.378-0.556-3.796
		c0-1.88,1.088-3.209,2.201-4.41c-0.178-0.435-1.172-2.393-0.225-4.76c0,0,1.451-0.051,4.737,2.191
		c1.378-0.378,2.856-0.564,4.319-0.564c1.33,0,2.657,0.153,3.905,0.466c3.184-2.131,4.592-2.093,4.592-2.093
		c0.798,1.995,0.099,3.758-0.119,4.46c1.245,1.242,2.42,2.67,2.42,4.71c0,1.422-0.093,2.698-0.4,3.807
		C28.06,21.471,28.067,21.471,28.076,21.471z"/>
	<path d="M23.864,17.276c-1.377-1.246-3.694-0.575-6.322-0.575c-2.638,0-4.965-0.664-6.339,0.59
		c-0.824,0.752-1.305,1.66-1.305,2.636c0,4.079,3.422,4.716,7.645,4.716c4.222,0,7.645-0.124,7.645-4.716
		C25.187,18.944,24.698,18.032,23.864,17.276z M13.212,22.325c-0.628,0-1.136-0.731-1.136-1.635c0-0.904,0.508-1.636,1.136-1.636
		c0.626,0,1.136,0.731,1.136,1.636C14.348,21.594,13.839,22.325,13.212,22.325z M21.944,22.325c-0.627,0-1.136-0.731-1.136-1.635
		c0-0.904,0.509-1.636,1.136-1.636c0.628,0,1.137,0.731,1.137,1.636C23.081,21.594,22.572,22.325,21.944,22.325z"/>
</g>
<path d="M52.516,0c-9.583,0-17.352,7.768-17.352,17.351c0,9.582,7.769,17.351,17.352,17.351s17.351-7.769,17.351-17.351
	C69.866,7.768,62.099,0,52.516,0z M60.971,14.271c0.008,0.171,0.013,0.343,0.013,0.517c0,5.282-4.022,11.375-11.375,11.375
	c-2.257,0-4.358-0.662-6.128-1.797c0.313,0.037,0.631,0.056,0.954,0.056c1.873,0,3.596-0.638,4.965-1.711
	c-1.75-0.032-3.226-1.188-3.734-2.776c0.244,0.047,0.495,0.072,0.752,0.072c0.365,0,0.718-0.049,1.054-0.141
	c-1.829-0.366-3.207-1.982-3.207-3.919c0-0.018,0-0.034,0.001-0.051c0.538,0.299,1.155,0.479,1.81,0.499
	c-1.072-0.716-1.778-1.94-1.778-3.327c0-0.732,0.197-1.419,0.541-2.01c1.972,2.418,4.918,4.01,8.24,4.177
	c-0.068-0.292-0.104-0.598-0.104-0.911c0-2.208,1.79-3.998,3.998-3.998c1.148,0,2.188,0.485,2.917,1.262
	c0.911-0.18,1.767-0.511,2.539-0.97c-0.299,0.934-0.933,1.717-1.757,2.211c0.808-0.096,1.579-0.312,2.295-0.629
	C62.431,13.004,61.753,13.708,60.971,14.271z"/>
<path d="M87.43,0c-9.583,0-17.351,7.768-17.351,17.351c0,9.582,7.768,17.351,17.351,17.351c9.582,0,17.351-7.769,17.351-17.351
	C104.78,7.768,97.012,0,87.43,0z M85.139,12.063l6.961,4.203l-0.912,1.511l-6.96-4.204L85.139,12.063z M83.242,16.021l7.826,2.209
	l-0.479,1.698l-7.825-2.208L83.242,16.021z M82.502,19.523l8.094,0.781l-0.17,1.756l-8.093-0.78L82.502,19.523z M82.312,22.621H90.4
	v1.722h-8.088V22.621z M93.239,27.138H79.774l0.008-8.601l1.552,0.016l-0.054,6.908h10.324v-6.884h1.635V27.138z M92.4,15.952
	l-4.736-6.609l1.434-1.028l4.736,6.609L92.4,15.952z M94.199,14.828l-1.34-8.02l1.74-0.291l1.341,8.02L94.199,14.828z"/>
</svg>
