<?xml version="1.0" encoding="utf-8"?>
<!-- Generator: Adobe Illustrator 15.1.0, SVG Export Plug-In . SVG Version: 6.00 Build 0)  -->
<!DOCTYPE svg PUBLIC "-//W3C//DTD SVG 1.1//EN" "http://www.w3.org/Graphics/SVG/1.1/DTD/svg11.dtd">
<svg version="1.1" id="Layer_1" xmlns="http://www.w3.org/2000/svg" xmlns:xlink="http://www.w3.org/1999/xlink" x="0px" y="0px"
	 width="80px" height="80px" viewBox="0 0 80 80" enable-background="new 0 0 80 80" xml:space="preserve">
<circle cx="40" cy="39.5" r="40"/>
<path fill="#FFFFFF" stroke="#FFFFFF" stroke-miterlimit="10" d="M29.863,55.719v-2.611l3.696-0.869V28.751l-3.696-0.873v-2.39
	l8.263-0.218h4.568c3.22,0,5.69,0.799,7.418,2.392c1.724,1.595,2.588,3.771,2.588,6.526c0,3.334-1.023,5.872-3.07,7.611
	c-2.041,1.739-4.936,2.609-8.675,2.609h-2.829v7.83l3.697,0.869v2.611H29.863z M38.126,28.751V40.93h2.829
	c4.783,0,7.175-2.029,7.175-6.09c0-1.798-0.492-3.264-1.478-4.395c-0.986-1.13-2.377-1.694-4.176-1.694H38.126z"/>
</svg>
