<?xml version="1.0" encoding="utf-8"?>
<!-- Generator: Adobe Illustrator 15.1.0, SVG Export Plug-In . SVG Version: 6.00 Build 0)  -->
<!DOCTYPE svg PUBLIC "-//W3C//DTD SVG 1.1//EN" "http://www.w3.org/Graphics/SVG/1.1/DTD/svg11.dtd">
<svg version="1.1" id="Layer_1" xmlns="http://www.w3.org/2000/svg" xmlns:xlink="http://www.w3.org/1999/xlink" x="0px" y="0px"
	 width="36px" height="36px" viewBox="-0.334 -0.583 36 36" enable-background="new -0.334 -0.583 36 36" xml:space="preserve">
<path d="M17.495,0.146c-9.582,0-17.352,7.768-17.352,17.351s7.77,17.351,17.352,17.351c9.584,0,17.352-7.768,17.352-17.351
	C34.846,7.914,27.079,0.146,17.495,0.146z M25.95,14.417c0.008,0.171,0.014,0.343,0.014,0.517c0,5.283-4.022,11.375-11.375,11.375
	c-2.258,0-4.358-0.662-6.129-1.797c0.313,0.037,0.631,0.057,0.955,0.057c1.873,0,3.596-0.639,4.965-1.711
	c-1.75-0.031-3.227-1.188-3.734-2.775c0.244,0.047,0.495,0.07,0.752,0.07c0.365,0,0.719-0.049,1.055-0.141
	c-1.83-0.365-3.207-1.982-3.207-3.919c0-0.018,0-0.034,0-0.051c0.539,0.299,1.155,0.479,1.811,0.499
	c-1.072-0.716-1.778-1.94-1.778-3.327c0-0.732,0.197-1.419,0.541-2.01c1.972,2.418,4.918,4.01,8.24,4.177
	c-0.067-0.292-0.104-0.598-0.104-0.911c0-2.208,1.791-3.998,3.998-3.998c1.148,0,2.188,0.485,2.918,1.262
	c0.91-0.18,1.767-0.511,2.539-0.97c-0.3,0.934-0.934,1.717-1.758,2.211c0.809-0.096,1.579-0.312,2.295-0.629
	C27.411,13.15,26.732,13.854,25.95,14.417z"/>
</svg>
