<?xml version="1.0" encoding="utf-8"?>
<!-- Generator: Adobe Illustrator 15.1.0, SVG Export Plug-In . SVG Version: 6.00 Build 0)  -->
<!DOCTYPE svg PUBLIC "-//W3C//DTD SVG 1.1//EN" "http://www.w3.org/Graphics/SVG/1.1/DTD/svg11.dtd">
<svg version="1.1" id="Layer_1" xmlns="http://www.w3.org/2000/svg" xmlns:xlink="http://www.w3.org/1999/xlink" x="0px" y="0px"
	 width="80px" height="80px" viewBox="0 0 80 80" enable-background="new 0 0 80 80" xml:space="preserve">
<circle cx="40" cy="39.5" r="39.166"/>
<path fill="#FFFFFF" stroke="#FFFFFF" stroke-miterlimit="10" d="M30.074,55.381v-2.557l3.619-0.852V28.975l-3.619-0.855v-2.34
	l8.091-0.213h4.473c3.153,0,5.571,0.782,7.263,2.342c1.688,1.562,2.535,3.692,2.535,6.39c0,3.264-1.001,5.75-3.006,7.452
	c-1.999,1.703-4.834,2.555-8.494,2.555h-2.771v7.667l3.62,0.852v2.557H30.074L30.074,55.381z M38.165,28.975v11.924h2.771
	c4.684,0,7.025-1.986,7.025-5.962c0-1.76-0.481-3.196-1.447-4.304c-0.966-1.106-2.327-1.658-4.089-1.658H38.165z"/>
</svg>
